<?xml version="1.0" standalone="no"?>
<!DOCTYPE svg PUBLIC "-//W3C//DTD SVG 20010904//EN"
 "http://www.w3.org/TR/2001/REC-SVG-20010904/DTD/svg10.dtd">
<svg version="1.0" xmlns="http://www.w3.org/2000/svg"
 width="1200.000000pt" height="840.000000pt" viewBox="0 0 1200.000000 840.000000"
 preserveAspectRatio="xMidYMid meet">

<g transform="translate(0.000000,840.000000) scale(0.100000,-0.100000)"
fill="#000000" stroke="none">
<path d="M0 4200 l0 -4200 6000 0 6000 0 0 4200 0 4200 -6000 0 -6000 0 0
-4200z m8500 1588 c1364 -871 2480 -1585 2480 -1588 0 -8 -4962 -3173 -4977
-3174 -14 -1 -4982 3164 -4982 3174 0 12 4975 3180 4987 3175 7 -2 1128 -717
2492 -1587z"/>
<path d="M5780 6289 c-478 -49 -928 -267 -1272 -616 -117 -118 -180 -195 -266
-326 -58 -88 -166 -286 -160 -293 2 -1 53 4 113 11 718 88 1496 11 2185 -215
606 -199 1132 -486 1641 -895 l57 -45 6 28 c3 15 8 95 12 177 20 441 -104 884
-349 1250 -106 158 -290 359 -436 476 -430 342 -982 504 -1531 448z m923
-1409 l32 -1 -23 -19 c-20 -16 -22 -25 -17 -52 l7 -33 -22 20 c-20 19 -23 19
-51 3 -33 -19 -33 -19 -19 16 8 21 5 28 -18 45 l-27 20 33 1 c20 0 34 6 37 15
16 49 17 50 27 18 7 -28 13 -33 41 -33z"/>
<path d="M4668 5042 l-38 -3 0 -96 0 -95 62 4 c75 6 108 35 108 98 0 69 -46
101 -132 92z m87 -42 c9 -7 15 -29 15 -51 0 -45 -27 -69 -77 -69 l-33 0 0 71
0 72 40 -6 c23 -3 47 -11 55 -17z"/>
<path d="M4890 4989 c0 -35 -3 -81 -6 -101 l-7 -38 92 0 c74 0 91 3 91 15 0
12 -15 15 -75 15 l-75 0 0 30 0 30 60 0 c60 0 80 12 38 24 -13 3 -40 6 -60 6
-38 0 -43 5 -33 32 4 10 22 13 70 10 55 -4 65 -2 65 12 0 13 -11 16 -57 16
-32 0 -68 3 -80 6 -22 6 -23 4 -23 -57z"/>
<path d="M4415 5033 l-50 -4 5 -91 c3 -61 9 -93 18 -96 8 -2 12 8 12 31 0 32
3 35 37 42 31 6 40 3 55 -15 10 -12 18 -28 18 -36 0 -8 7 -14 15 -14 12 0 14
7 9 28 -4 15 -10 32 -15 37 -4 6 -1 19 7 29 8 11 14 28 14 37 0 19 -46 60 -64
57 -6 -1 -33 -3 -61 -5z m79 -38 c24 -24 9 -42 -41 -50 -51 -7 -48 -9 -57 27
-6 25 -4 27 31 31 21 2 41 4 45 5 4 1 13 -5 22 -13z"/>
<path d="M5145 4939 c-3 -50 -4 -94 0 -97 12 -13 25 24 25 76 0 65 16 60 25
-8 4 -28 14 -58 23 -66 14 -15 18 -10 44 52 l29 69 -5 -67 c-3 -53 -1 -68 10
-68 8 0 14 10 15 23 0 12 4 55 8 95 7 70 6 72 -15 72 -18 0 -27 -12 -46 -60
-12 -33 -26 -60 -29 -60 -4 0 -12 29 -19 65 -11 57 -15 65 -35 65 -21 0 -23
-5 -30 -91z"/>
<path d="M4139 4981 c-21 -22 -29 -39 -29 -66 0 -48 44 -95 90 -95 77 0 109
102 51 161 -18 17 -40 29 -56 29 -16 0 -38 -12 -56 -29z m89 -17 c24 -17 30
-61 12 -95 -24 -44 -100 -10 -100 46 0 28 27 65 48 65 10 0 28 -7 40 -16z"/>
<path d="M5570 4896 c-6 -39 -12 -77 -13 -85 -3 -19 124 -45 135 -27 7 10 -5
15 -88 31 -16 4 -20 10 -17 29 5 23 8 24 54 19 31 -4 49 -2 49 4 0 12 -33 23
-67 23 -17 0 -23 6 -23 21 0 20 4 21 54 15 34 -5 56 -3 60 3 7 11 -6 15 -86
30 l-47 8 -11 -71z"/>
<path d="M5980 4902 c0 -4 -11 -46 -24 -94 -20 -73 -22 -87 -10 -92 10 -4 16
4 21 25 7 38 20 43 73 29 35 -9 46 -9 66 5 29 19 32 64 7 88 -19 16 -133 50
-133 39z m98 -53 c24 -9 30 -44 8 -52 -21 -8 -96 14 -96 28 0 45 18 49 88 24z"/>
<path d="M6235 4827 c-18 -48 -55 -162 -55 -169 0 -4 6 -8 14 -8 8 0 17 14 21
31 7 30 9 31 44 25 45 -7 62 -29 54 -69 -5 -23 -3 -29 8 -25 8 2 15 20 17 39
2 19 12 42 23 52 22 21 25 69 5 86 -7 6 -39 20 -70 31 -42 14 -58 16 -61 7z
m93 -48 c23 -9 30 -43 11 -54 -12 -8 -99 14 -99 24 0 3 3 16 6 28 6 24 22 24
82 2z"/>
<path d="M4493 4790 c-128 -9 -422 -43 -493 -58 l-35 -8 -22 -104 c-114 -548
1 -1125 318 -1596 180 -267 445 -508 731 -665 724 -395 1605 -333 2265 159
180 135 381 351 506 542 95 146 237 448 237 504 0 9 -53 60 -117 113 -754 627
-1627 995 -2603 1098 -177 19 -608 27 -787 15z m-154 -180 l36 -1 -28 -23
c-24 -20 -27 -26 -18 -49 12 -31 5 -34 -20 -11 -17 15 -20 15 -43 0 -34 -22
-37 -20 -25 11 9 25 7 30 -18 50 l-28 23 36 0 c32 0 38 4 44 28 l8 27 10 -27
c9 -23 17 -28 46 -28z m2262 -280 c10 0 19 -4 19 -10 0 -5 -5 -10 -11 -10 -7
0 -9 -10 -7 -25 6 -27 -1 -32 -20 -13 -8 8 -15 8 -28 -3 -16 -13 -17 -12 -12
9 4 15 2 25 -8 29 -20 8 -17 23 5 23 10 0 22 8 26 18 8 16 8 16 12 0 3 -10 13
-18 24 -18z m-1388 -170 c4 -14 14 -20 34 -20 l28 0 -22 -18 c-17 -12 -21 -23
-16 -41 5 -21 4 -22 -16 -12 -16 9 -26 9 -42 0 -20 -10 -21 -9 -16 12 5 18 1
29 -16 41 l-22 18 28 0 c20 0 30 6 34 20 3 11 9 20 13 20 4 0 10 -9 13 -20z
m800 -250 c4 -14 14 -20 34 -20 l28 0 -24 -19 c-17 -13 -22 -23 -16 -39 7 -24
-4 -29 -23 -10 -9 9 -15 9 -24 0 -19 -19 -30 -14 -23 10 6 16 1 26 -16 39
l-24 19 28 0 c20 0 30 6 34 20 3 11 9 20 13 20 4 0 10 -9 13 -20z m-1308 -88
c-3 -8 -5 -17 -5 -20 0 -4 -11 -7 -24 -7 -13 0 -22 4 -19 8 3 4 -1 14 -7 22
-10 12 -9 15 4 15 9 0 16 5 16 10 0 6 8 5 20 -2 11 -7 18 -19 15 -26z m-181
-102 l31 0 -24 -19 c-19 -14 -22 -24 -17 -45 7 -30 0 -33 -24 -11 -15 14 -20
13 -44 -6 l-27 -22 6 36 c6 29 3 37 -16 51 l-23 16 31 0 c26 0 33 5 43 33 l13
32 10 -32 c8 -28 15 -33 41 -33z m1765 -20 l26 -1 -23 -19 c-19 -16 -21 -23
-12 -40 12 -23 8 -25 -20 -8 -15 10 -22 10 -32 0 -19 -19 -30 -14 -23 9 4 13
0 27 -11 40 -16 18 -16 19 8 19 18 0 28 7 32 23 l7 22 11 -22 c7 -15 20 -23
37 -23z m-489 4 c0 -8 10 -14 23 -14 19 -1 20 -2 5 -10 -11 -7 -14 -17 -10
-32 5 -21 4 -22 -12 -9 -13 11 -20 11 -28 3 -19 -19 -26 -14 -20 13 3 17 0 25
-9 26 -8 0 -4 4 9 9 12 5 22 17 22 25 0 9 5 13 10 10 6 -3 10 -13 10 -21z
m-1542 -175 l27 0 -22 -15 c-18 -13 -20 -20 -13 -40 11 -27 8 -29 -20 -12 -15
10 -22 10 -32 0 -18 -18 -27 -15 -21 8 3 12 -2 29 -12 40 -18 19 -17 20 7 20
20 0 28 7 33 28 l7 27 10 -27 c7 -21 16 -28 36 -29z m1659 0 c-5 -4 -7 -11 -3
-17 3 -5 -5 -9 -19 -9 -29 0 -37 25 -15 47 13 13 17 13 31 0 8 -8 11 -18 6
-21z m-997 0 c0 -15 7 -19 32 -19 l32 0 -23 -16 c-17 -12 -21 -22 -17 -40 6
-22 5 -23 -19 -12 -19 8 -28 8 -41 -3 -16 -13 -17 -11 -11 13 6 22 3 30 -15
40 -23 12 -23 12 7 18 21 4 31 12 33 28 4 26 22 20 22 -9z m2603 -39 l32 0
-24 -19 c-20 -15 -22 -23 -16 -52 7 -33 7 -34 -12 -16 -24 21 -47 22 -63 2
-18 -21 -22 -13 -11 18 9 22 7 29 -16 47 l-26 20 31 0 c25 0 32 6 42 33 l12
32 9 -32 c8 -28 14 -33 42 -33z m273 -30 c13 0 14 -3 4 -15 -7 -8 -10 -22 -6
-30 6 -17 -9 -21 -19 -5 -4 7 -13 6 -27 -1 -17 -9 -19 -8 -14 9 5 14 1 24 -11
31 -16 10 -16 10 4 11 13 0 24 8 29 22 l7 23 8 -23 c5 -12 16 -22 25 -22z
m-198 -160 c24 0 24 -1 8 -19 -12 -13 -15 -27 -11 -40 6 -20 4 -20 -20 -9 -19
9 -28 9 -37 0 -20 -20 -28 -14 -18 13 8 20 5 27 -13 40 l-21 15 27 0 c21 0 28
6 34 28 l7 27 10 -27 c7 -20 17 -28 34 -28z m-1586 18 c2 -18 11 -24 37 -26
l33 -3 -22 -24 c-17 -18 -21 -31 -16 -51 7 -27 7 -27 -18 -10 -24 15 -28 15
-52 0 -25 -17 -25 -17 -18 10 5 20 1 33 -16 51 l-22 24 33 3 c26 2 35 8 37 26
2 12 7 22 12 22 5 0 10 -10 12 -22z m-1130 -18 c20 0 20 -1 4 -19 -10 -11 -14
-25 -9 -37 6 -17 5 -18 -11 -5 -14 12 -21 12 -38 2 -18 -11 -19 -10 -13 9 5
15 1 26 -12 35 -17 14 -17 14 5 15 12 0 25 7 29 16 5 15 7 15 15 0 5 -9 18
-16 30 -16z m2558 -145 c6 -16 17 -25 32 -25 22 -1 22 -1 5 -14 -13 -10 -16
-21 -11 -42 7 -27 7 -27 -16 -11 -22 15 -25 15 -43 -1 -19 -16 -20 -16 -13 10
5 21 1 30 -16 42 l-22 16 27 0 c20 0 28 6 33 25 3 14 8 25 10 25 3 0 9 -11 14
-25z m-2268 -20 c3 -15 11 -20 37 -20 l33 0 -26 -22 c-22 -19 -24 -26 -16 -47
11 -29 4 -32 -24 -11 -16 12 -22 12 -43 -2 l-25 -17 6 32 c6 25 3 33 -13 44
-28 17 -26 26 4 20 22 -4 28 1 38 27 12 32 22 31 29 -4z m1904 -75 c13 0 14
-3 4 -15 -7 -8 -10 -22 -6 -30 6 -17 -9 -21 -19 -5 -4 7 -13 6 -27 -1 -17 -9
-19 -8 -14 9 5 14 1 24 -11 31 -16 10 -16 10 4 11 13 0 24 8 29 22 l7 23 8
-23 c5 -12 16 -22 25 -22z m-580 -20 c13 0 14 -3 4 -15 -7 -8 -10 -22 -6 -30
6 -17 -9 -21 -19 -5 -4 7 -13 6 -27 -1 -17 -9 -19 -8 -14 9 5 14 1 24 -11 31
-16 10 -16 10 4 11 13 0 24 8 29 22 l7 23 8 -23 c5 -12 16 -22 25 -22z m774
-5 c0 -9 9 -15 23 -15 19 -1 20 -2 7 -13 -9 -7 -14 -21 -12 -32 3 -16 1 -17
-9 -8 -9 9 -18 9 -31 2 -17 -9 -19 -8 -16 8 2 10 -3 23 -12 30 -13 11 -12 12
8 13 13 0 22 6 22 15 0 8 5 15 10 15 6 0 10 -7 10 -15z m-450 -31 c0 -8 10
-14 23 -14 20 -1 21 -2 4 -14 -9 -7 -15 -20 -12 -27 4 -10 -3 -14 -25 -14 -20
0 -30 5 -30 16 0 8 -5 20 -12 27 -9 9 -7 12 10 12 16 0 22 6 22 21 0 11 5 17
10 14 6 -3 10 -13 10 -21z m274 -142 c28 -4 28 -4 7 -18 -16 -12 -20 -21 -15
-40 6 -24 5 -25 -15 -12 -17 10 -25 10 -41 0 -19 -11 -20 -11 -14 12 4 18 0
28 -17 40 l-23 16 27 0 c21 0 30 7 39 28 l11 27 6 -25 c5 -18 15 -26 35 -28z
m-454 -33 c0 -15 7 -19 32 -19 l32 0 -23 -16 c-17 -12 -21 -22 -17 -40 6 -22
5 -23 -19 -12 -19 8 -28 8 -41 -3 -16 -13 -17 -11 -11 13 6 22 3 30 -15 40
-23 12 -23 12 7 18 21 4 31 12 33 28 4 26 22 20 22 -9z m444 -179 c20 0 21
-16 2 -23 -10 -4 -12 -14 -8 -29 5 -21 4 -22 -12 -9 -13 11 -20 11 -28 3 -19
-19 -26 -14 -20 13 2 15 0 25 -7 25 -6 0 -11 5 -11 10 0 6 9 10 20 10 12 0 20
7 20 18 1 16 1 16 14 0 7 -10 21 -18 30 -18z m-1066 -93 c2 -12 -3 -17 -17
-17 -12 0 -21 6 -21 13 0 31 32 34 38 4z"/>
<path d="M6479 4701 c-50 -51 -35 -140 27 -155 86 -22 152 97 89 159 -34 35
-78 33 -116 -4z m95 -17 c23 -22 20 -64 -6 -91 -39 -41 -88 -20 -88 39 0 58
57 89 94 52z"/>
<path d="M6716 4599 c-52 -62 -23 -149 49 -149 24 0 35 -5 35 -15 0 -26 16
-16 33 20 23 47 22 51 -13 63 -33 12 -51 -1 -23 -17 16 -9 16 -11 -7 -19 -54
-21 -94 54 -54 99 24 27 76 22 89 -8 11 -25 35 -31 35 -9 0 7 -9 25 -21 40
-31 39 -88 37 -123 -5z"/>
<path d="M6933 4466 c-23 -46 -39 -87 -36 -90 12 -12 21 -6 33 24 15 35 24 37
68 10 35 -21 37 -26 22 -64 -6 -17 -6 -27 2 -32 14 -9 28 15 28 48 0 18 7 29
20 33 27 8 43 41 36 71 -5 17 -25 33 -66 54 -33 16 -61 30 -62 30 -2 0 -22
-38 -45 -84z m96 30 c42 -22 53 -39 38 -60 -12 -17 -16 -16 -59 5 -43 20 -45
24 -35 46 12 27 18 28 56 9z"/>
<path d="M7161 4349 c-35 -65 -41 -83 -30 -90 106 -64 137 -78 142 -64 4 10
-12 24 -53 47 -64 35 -66 38 -49 69 10 19 11 19 60 -7 47 -26 69 -28 54 -5 -3
6 -24 20 -46 31 -41 22 -44 26 -29 50 8 13 18 10 69 -18 39 -21 62 -29 66 -22
4 6 5 13 4 15 -8 7 -131 75 -137 75 -4 0 -27 -37 -51 -81z"/>
<path d="M7417 4260 c-19 -28 -13 -45 31 -92 35 -37 38 -68 7 -68 -20 0 -68
47 -61 59 3 5 -1 12 -10 15 -23 9 -24 8 -24 -15 0 -27 52 -76 91 -84 24 -6 36
-2 52 14 25 24 17 47 -34 105 -25 29 -29 40 -20 49 16 16 64 -11 70 -38 4 -24
23 -38 32 -23 19 30 -31 82 -89 94 -23 5 -33 1 -45 -16z"/>
<path d="M7628 4105 c-10 -22 -7 -30 25 -71 41 -52 46 -74 19 -74 -26 0 -62
29 -62 50 0 23 -18 36 -32 22 -15 -15 17 -69 52 -87 52 -27 100 -15 100 26 0
9 -16 37 -36 63 -19 25 -32 51 -29 56 17 27 75 -6 75 -42 0 -9 7 -18 15 -22
11 -4 15 1 15 17 0 67 -116 118 -142 62z"/>
<path d="M7853 3955 c-33 -14 -63 -59 -63 -95 0 -31 53 -80 85 -80 42 0 95 59
95 104 0 34 -27 76 -49 76 -5 0 -15 2 -23 5 -7 2 -27 -2 -45 -10z m65 -31 c31
-22 29 -67 -4 -93 -32 -25 -51 -26 -76 -4 -31 28 -17 86 25 103 30 12 30 12
55 -6z"/>
</g>
</svg>
