<?xml version="1.0" encoding="UTF-8"?>
<!DOCTYPE svg PUBLIC "-//W3C//DTD SVG 1.1//EN" "http://www.w3.org/Graphics/SVG/1.1/DTD/svg11.dtd">
<svg xmlns="http://www.w3.org/2000/svg" version="1.1" width="1200px" height="840px" style="shape-rendering:geometricPrecision; text-rendering:geometricPrecision; image-rendering:optimizeQuality; fill-rule:evenodd; clip-rule:evenodd" xmlns:xlink="http://www.w3.org/1999/xlink">
<g><path style="opacity:1" fill="#00943f" d="M -0.5,-0.5 C 399.5,-0.5 799.5,-0.5 1199.5,-0.5C 1199.5,279.5 1199.5,559.5 1199.5,839.5C 799.5,839.5 399.5,839.5 -0.5,839.5C -0.5,559.5 -0.5,279.5 -0.5,-0.5 Z"/></g>
<g><path style="opacity:1" fill="#feca00" d="M 598.5,101.5 C 764.819,206.993 930.819,312.993 1096.5,419.5C 931.039,525.736 765.373,631.736 599.5,737.5C 433.664,631.75 267.997,525.75 102.5,419.5C 267.898,313.476 433.231,207.476 598.5,101.5 Z"/></g>
<g><path style="opacity:1" fill="#302680" d="M 807.5,448.5 C 690.678,354.021 557.345,316.021 407.5,334.5C 443.662,259.546 503.329,218.046 586.5,210C 667.05,208.024 730.217,239.857 776,305.5C 803.705,349.326 814.205,396.992 807.5,448.5 Z"/></g>
<g><path style="opacity:1" fill="#f8fafa" d="M 807.5,448.5 C 806.063,460.241 803.396,471.575 799.5,482.5C 715.797,407.73 617.463,366.897 504.5,360C 468.223,357.958 432.223,360.124 396.5,366.5C 398.977,355.403 402.643,344.736 407.5,334.5C 557.345,316.021 690.678,354.021 807.5,448.5 Z"/></g>
<g><path style="opacity:1" fill="#269d50" d="M 487.5,334.5 C 493.5,334.5 499.5,334.5 505.5,334.5C 505.5,335.833 505.5,337.167 505.5,338.5C 500.833,338.5 496.167,338.5 491.5,338.5C 491.5,339.833 491.5,341.167 491.5,342.5C 495.167,342.5 498.833,342.5 502.5,342.5C 502.5,343.833 502.5,345.167 502.5,346.5C 498.833,346.5 495.167,346.5 491.5,346.5C 491.5,348.167 491.5,349.833 491.5,351.5C 496.167,351.5 500.833,351.5 505.5,351.5C 505.5,352.5 505.5,353.5 505.5,354.5C 499.5,354.5 493.5,354.5 487.5,354.5C 487.5,347.833 487.5,341.167 487.5,334.5 Z"/></g>
<g><path style="opacity:1" fill="#229c4f" d="M 461.5,334.5 C 466.599,334.175 471.599,334.675 476.5,336C 478.888,338.306 479.888,341.139 479.5,344.5C 479.888,347.861 478.888,350.694 476.5,353C 471.628,354.388 466.628,354.888 461.5,354.5C 461.5,347.833 461.5,341.167 461.5,334.5 Z"/></g>
<g><path style="opacity:1" fill="#219c4e" d="M 435.5,335.5 C 440.179,335.334 444.845,335.501 449.5,336C 454.079,338.962 454.745,342.795 451.5,347.5C 453.229,349.851 453.896,352.518 453.5,355.5C 452.5,355.5 451.5,355.5 450.5,355.5C 450.379,349.004 447.046,346.671 440.5,348.5C 440.5,351.167 440.5,353.833 440.5,356.5C 439.167,356.5 437.833,356.5 436.5,356.5C 436.623,349.471 436.29,342.471 435.5,335.5 Z"/></g>
<g><path style="opacity:1" fill="#2c9f54" d="M 514.5,335.5 C 516.167,335.5 517.833,335.5 519.5,335.5C 520.456,349.982 522.956,350.649 527,337.5C 528.699,336.594 530.533,336.261 532.5,336.5C 532.026,343.163 531.526,349.829 531,356.5C 529.989,357.337 528.822,357.67 527.5,357.5C 527.665,354.15 527.498,350.817 527,347.5C 526.075,350.971 524.408,353.971 522,356.5C 521.228,356.355 520.561,356.022 520,355.5C 517.907,342.316 516.741,342.316 516.5,355.5C 515.167,355.5 513.833,355.5 512.5,355.5C 513.24,348.842 513.906,342.175 514.5,335.5 Z"/></g>
<g><path style="opacity:1" fill="#2a9e52" d="M 415.5,338.5 C 426.082,338.332 429.915,343.332 427,353.5C 421.159,360.394 415.825,360.061 411,352.5C 409.309,346.61 410.809,341.944 415.5,338.5 Z"/></g>
<g><path style="opacity:1" fill="#f9fcfb" d="M 465.5,338.5 C 468.187,338.336 470.854,338.503 473.5,339C 477.057,342.182 477.391,345.682 474.5,349.5C 471.579,350.407 468.579,350.74 465.5,350.5C 465.5,346.5 465.5,342.5 465.5,338.5 Z"/></g>
<g><path style="opacity:1" fill="#f9fcfa" d="M 439.5,339.5 C 442.518,339.335 445.518,339.502 448.5,340C 449.833,341.333 449.833,342.667 448.5,344C 445.518,344.498 442.518,344.665 439.5,344.5C 439.5,342.833 439.5,341.167 439.5,339.5 Z"/></g>
<g><path style="opacity:1" fill="#fafdfb" d="M 416.5,342.5 C 424.963,343.271 426.629,347.104 421.5,354C 415.195,353.994 413.029,350.828 415,344.5C 415.717,343.956 416.217,343.289 416.5,342.5 Z"/></g>
<g><path style="opacity:1" fill="#289e52" d="M 556.5,342.5 C 561.484,343.275 566.484,343.942 571.5,344.5C 571.5,345.833 571.5,347.167 571.5,348.5C 567.772,348.156 564.105,347.49 560.5,346.5C 559.614,347.325 559.281,348.325 559.5,349.5C 562.455,350.159 565.455,350.492 568.5,350.5C 568.5,351.833 568.5,353.167 568.5,354.5C 565.167,354.167 561.833,353.833 558.5,353.5C 558.238,354.978 558.571,356.311 559.5,357.5C 562.109,358.23 564.776,358.73 567.5,359C 568.973,359.71 569.64,360.876 569.5,362.5C 564.47,362.02 559.47,361.353 554.5,360.5C 555.26,354.511 555.927,348.511 556.5,342.5 Z"/></g>
<g><path style="opacity:1" fill="#ebeaf3" d="M 664.5,345.5 C 665.738,347.214 666.405,349.214 666.5,351.5C 668.527,351.338 670.527,351.505 672.5,352C 671.421,352.956 670.255,353.789 669,354.5C 668.845,356.856 668.845,359.189 669,361.5C 666.095,357.673 663.095,357.673 660,361.5C 660.374,359.231 660.374,356.898 660,354.5C 658.745,353.789 657.579,352.956 656.5,352C 661.333,352.357 664,350.19 664.5,345.5 Z"/></g>
<g><path style="opacity:1" fill="#259d50" d="M 597.5,348.5 C 601.883,349.477 606.216,350.643 610.5,352C 614.704,356.155 614.371,359.822 609.5,363C 605.493,363.713 601.66,363.213 598,361.5C 596.798,363.677 596.298,366.011 596.5,368.5C 595.167,368.5 593.833,368.5 592.5,368.5C 593.545,361.655 595.211,354.989 597.5,348.5 Z"/></g>
<g><path style="opacity:1" fill="#ecf7f1" d="M 599.5,353.5 C 603.547,353.332 606.88,354.665 609.5,357.5C 608.652,358.991 607.319,359.658 605.5,359.5C 603.182,359.003 600.848,358.67 598.5,358.5C 598.629,356.784 598.962,355.117 599.5,353.5 Z"/></g>
<g><path style="opacity:1" fill="#289e52" d="M 622.5,355.5 C 627.577,356.47 632.41,358.137 637,360.5C 639.407,364.466 638.74,367.8 635,370.5C 634.607,373.633 633.774,376.633 632.5,379.5C 631.328,379.081 630.328,378.415 629.5,377.5C 630.374,375.253 630.708,372.92 630.5,370.5C 628.063,370.244 625.729,369.577 623.5,368.5C 621.804,370.546 620.471,372.879 619.5,375.5C 618.328,375.081 617.328,374.415 616.5,373.5C 618.705,367.55 620.705,361.55 622.5,355.5 Z"/></g>
<g><path style="opacity:1" fill="#302681" d="M 799.5,482.5 C 779.691,542.48 741.024,585.646 683.5,612C 605.939,642.395 533.939,632.728 467.5,583C 405.72,529.347 380.887,461.847 393,380.5C 393.858,375.735 395.024,371.069 396.5,366.5C 432.223,360.124 468.223,357.958 504.5,360C 617.463,366.897 715.797,407.73 799.5,482.5 Z"/></g>
<g><path style="opacity:1" fill="#f2f9f5" d="M 624.5,360.5 C 628.445,360.478 631.778,361.811 634.5,364.5C 632.854,367.983 630.521,368.483 627.5,366C 624.965,365.072 623.965,363.238 624.5,360.5 Z"/></g>
<g><path style="opacity:1" fill="#1c9a4b" d="M 649.5,366.5 C 659.156,365.657 662.989,369.99 661,379.5C 658.367,384.732 654.201,386.565 648.5,385C 641.734,378.433 642.068,372.267 649.5,366.5 Z"/></g>
<g><path style="opacity:1" fill="#f3faf5" d="M 651.5,369.5 C 659.103,370.956 660.436,374.789 655.5,381C 649.143,382.481 646.643,379.981 648,373.5C 649.376,372.295 650.542,370.962 651.5,369.5 Z"/></g>
<g><path style="opacity:1" fill="#e7e5f0" d="M 427.5,373.5 C 428.931,374.78 429.598,376.447 429.5,378.5C 431.857,378.337 434.19,378.503 436.5,379C 431.424,380.794 430.424,383.794 433.5,388C 431.583,387.973 429.916,387.139 428.5,385.5C 426.742,386.128 425.242,387.128 424,388.5C 423.349,386.765 423.515,385.098 424.5,383.5C 423.252,381.541 421.585,380.041 419.5,379C 421.81,378.503 424.143,378.337 426.5,378.5C 426.629,376.784 426.962,375.117 427.5,373.5 Z"/></g>
<g><path style="opacity:1" fill="#269d51" d="M 674.5,375.5 C 681.71,375.092 685.71,378.426 686.5,385.5C 685.448,385.649 684.448,385.483 683.5,385C 681.348,379.425 677.848,378.258 673,381.5C 671,384.5 671,387.5 673,390.5C 675.292,391.908 677.459,391.741 679.5,390C 678.027,389.29 677.36,388.124 677.5,386.5C 680.475,386.713 683.142,387.713 685.5,389.5C 684.023,392.591 682.356,395.591 680.5,398.5C 677.975,396.185 674.975,394.685 671.5,394C 665.721,386.835 666.721,380.669 674.5,375.5 Z"/></g>
<g><path style="opacity:1" fill="#199a4a" d="M 696.5,384.5 C 701.611,385.639 706.111,387.972 710,391.5C 711.337,395.526 710.17,398.526 706.5,400.5C 705.723,403.534 704.389,406.2 702.5,408.5C 701.28,408.113 700.613,407.28 700.5,406C 701.645,403.801 701.645,401.635 700.5,399.5C 698.587,398.627 696.753,397.627 695,396.5C 693.708,398.249 692.542,400.082 691.5,402C 690.035,402.601 689.035,402.101 688.5,400.5C 691.18,395.14 693.847,389.807 696.5,384.5 Z"/></g>
<g><path style="opacity:1" fill="#f1f9f4" d="M 698.5,388.5 C 700.807,389.653 703.14,390.82 705.5,392C 707.063,394.476 706.396,395.976 703.5,396.5C 700.679,395.926 698.346,394.592 696.5,392.5C 697.18,391.14 697.847,389.807 698.5,388.5 Z"/></g>
<g><path style="opacity:1" fill="#239c4f" d="M 719.5,395.5 C 724.272,397.72 728.938,400.22 733.5,403C 734.337,404.011 734.67,405.178 734.5,406.5C 729.894,405.447 725.727,403.447 722,400.5C 720.024,401.543 719.524,402.877 720.5,404.5C 723.5,406.333 726.5,408.167 729.5,410C 728.953,410.925 728.287,411.758 727.5,412.5C 724.661,410.58 721.661,408.913 718.5,407.5C 717.155,408.347 716.155,409.513 715.5,411C 719.53,413.677 723.53,416.344 727.5,419C 727.387,420.28 726.72,421.113 725.5,421.5C 720.334,418.752 715.334,415.752 710.5,412.5C 713.96,407.05 716.96,401.383 719.5,395.5 Z"/></g>
<g><path style="opacity:1" fill="#dbd9e9" d="M 656.5,403.5 C 657.404,404.209 657.737,405.209 657.5,406.5C 659.199,406.34 660.866,406.506 662.5,407C 661.01,407.745 660.01,408.912 659.5,410.5C 660.538,414.142 659.538,414.475 656.5,411.5C 653.684,414.257 653.018,413.757 654.5,410C 653.5,409.167 652.5,408.333 651.5,407.5C 653.826,406.855 655.493,405.522 656.5,403.5 Z"/></g>
<g><path style="opacity:1" fill="#239c4f" d="M 741.5,411.5 C 749.751,410.927 754.418,414.594 755.5,422.5C 754.448,422.649 753.448,422.483 752.5,422C 751.442,417.769 748.775,415.602 744.5,415.5C 744.351,416.552 744.517,417.552 745,418.5C 747.374,420.539 749.374,422.872 751,425.5C 751.896,428.025 751.396,430.192 749.5,432C 742.153,433.474 737.487,430.641 735.5,423.5C 735.833,422.5 736.167,421.5 736.5,420.5C 738.586,422.883 740.586,425.383 742.5,428C 743.793,428.49 745.127,428.657 746.5,428.5C 746.649,427.448 746.483,426.448 746,425.5C 743.626,423.461 741.626,421.128 740,418.5C 739.391,415.935 739.891,413.601 741.5,411.5 Z"/></g>
<g><path style="opacity:1" fill="#e8e7f1" d="M 518.5,421.5 C 520.026,422.105 521.026,423.271 521.5,425C 527.151,424.979 527.651,426.145 523,428.5C 522.805,430.207 522.805,431.874 523,433.5C 520.667,430.833 518.333,430.833 516,433.5C 515.405,432.101 515.572,430.768 516.5,429.5C 515.395,428.108 514.061,426.941 512.5,426C 514.167,425.667 515.833,425.333 517.5,425C 518.337,423.989 518.67,422.822 518.5,421.5 Z"/></g>
<g><path style="opacity:1" fill="#219c4e" d="M 764.5,425.5 C 770.944,425.777 775.277,428.944 777.5,435C 777.387,436.28 776.72,437.113 775.5,437.5C 773.287,435.234 771.287,432.734 769.5,430C 768.552,429.517 767.552,429.351 766.5,429.5C 766.343,430.873 766.51,432.207 767,433.5C 771.144,436.116 772.811,439.783 772,444.5C 768.804,448.187 765.304,448.353 761.5,445C 757.445,442.411 756.112,438.911 757.5,434.5C 759.569,437.466 761.902,440.299 764.5,443C 766.319,443.783 767.652,443.283 768.5,441.5C 766.144,438.978 763.977,436.312 762,433.5C 761.018,430.225 761.851,427.559 764.5,425.5 Z"/></g>
<g><path style="opacity:1" fill="#1c9a4b" d="M 785.5,442.5 C 794.705,442.206 798.205,446.54 796,455.5C 793.081,461.025 788.581,462.858 782.5,461C 776.561,453.741 777.561,447.575 785.5,442.5 Z"/></g>
<g><path style="opacity:1" fill="#f4faf6" d="M 785.5,446.5 C 793.44,445.937 795.44,449.104 791.5,456C 784.063,459.591 781.229,457.424 783,449.5C 784.045,448.627 784.878,447.627 785.5,446.5 Z"/></g>
<g><path style="opacity:1" fill="#e8e6f1" d="M 598.5,446.5 C 600.176,447.183 600.843,448.517 600.5,450.5C 602.527,450.338 604.527,450.505 606.5,451C 605.421,451.956 604.255,452.789 603,453.5C 603.046,455.313 602.88,456.979 602.5,458.5C 601.5,457.833 600.5,457.167 599.5,456.5C 598.5,457.167 597.5,457.833 596.5,458.5C 596.167,458.167 595.833,457.833 595.5,457.5C 597.106,454.243 596.106,452.076 592.5,451C 594.473,450.505 596.473,450.338 598.5,450.5C 598.5,449.167 598.5,447.833 598.5,446.5 Z"/></g>
<g><path style="opacity:1" fill="#e1dfec" d="M 466.5,453.5 C 467.66,454.611 468.993,455.611 470.5,456.5C 469.902,457.795 469.402,459.128 469,460.5C 466.638,459.648 464.805,458.148 463.5,456C 465.119,455.764 466.119,454.931 466.5,453.5 Z"/></g>
<g><path style="opacity:1" fill="#f0eff6" d="M 446.5,461.5 C 447.738,463.214 448.405,465.214 448.5,467.5C 450.527,467.338 452.527,467.505 454.5,468C 450.694,469.395 449.694,471.895 451.5,475.5C 451.167,475.833 450.833,476.167 450.5,476.5C 449.167,475.5 447.833,474.5 446.5,473.5C 444.851,474.648 443.351,475.981 442,477.5C 441.571,475.331 442.071,473.331 443.5,471.5C 442.019,470.52 440.685,469.353 439.5,468C 443.897,468.029 446.231,465.862 446.5,461.5 Z"/></g>
<g><path style="opacity:1" fill="#eae9f2" d="M 623.5,465.5 C 624.781,468.402 627.115,469.902 630.5,470C 628.939,470.941 627.605,472.108 626.5,473.5C 627.428,474.768 627.595,476.101 627,477.5C 624.88,474.92 622.713,474.92 620.5,477.5C 621.226,474.537 620.226,472.037 617.5,470C 619.134,469.506 620.801,469.34 622.5,469.5C 622.433,468.041 622.766,466.708 623.5,465.5 Z"/></g>
<g><path style="opacity:1" fill="#eeedf5" d="M 577.5,466.5 C 579.104,467.287 579.771,468.62 579.5,470.5C 582.999,470.259 583.332,471.092 580.5,473C 581.982,476.757 581.316,477.257 578.5,474.5C 575.462,477.475 574.462,477.142 575.5,473.5C 575.182,472.353 574.516,471.519 573.5,471C 574.793,470.51 576.127,470.343 577.5,470.5C 577.5,469.167 577.5,467.833 577.5,466.5 Z"/></g>
<g><path style="opacity:1" fill="#e9e7f1" d="M 420.5,481.5 C 421.339,482.641 422.006,483.974 422.5,485.5C 424.078,486.298 425.744,486.798 427.5,487C 424.662,488.755 423.995,491.088 425.5,494C 423.893,494.115 422.393,493.615 421,492.5C 417.312,495.63 416.145,494.964 417.5,490.5C 416.99,488.912 415.99,487.745 414.5,487C 416.134,486.506 417.801,486.34 419.5,486.5C 419.629,484.784 419.962,483.117 420.5,481.5 Z"/></g>
<g><path style="opacity:1" fill="#e2e0ed" d="M 588.5,482.5 C 589.404,483.209 589.737,484.209 589.5,485.5C 590.552,485.351 591.552,485.517 592.5,486C 590.726,486.881 590.06,488.047 590.5,489.5C 589.5,488.167 588.5,488.167 587.5,489.5C 584.925,486.8 585.258,485.467 588.5,485.5C 588.5,484.5 588.5,483.5 588.5,482.5 Z"/></g>
<g><path style="opacity:1" fill="#eae9f2" d="M 489.5,483.5 C 491.213,484.635 491.88,486.302 491.5,488.5C 493.527,488.338 495.527,488.505 497.5,489C 493.808,490.431 492.642,492.931 494,496.5C 491.667,493.833 489.333,493.833 487,496.5C 486.405,495.101 486.572,493.768 487.5,492.5C 486.395,491.108 485.061,489.941 483.5,489C 487.466,489.143 489.466,487.309 489.5,483.5 Z"/></g>
<g><path style="opacity:1" fill="#efeef5" d="M 746.5,484.5 C 747.738,486.214 748.405,488.214 748.5,490.5C 750.527,490.338 752.527,490.505 754.5,491C 750.694,492.395 749.694,494.895 751.5,498.5C 751.167,498.833 750.833,499.167 750.5,499.5C 747.329,496.665 744.496,496.998 742,500.5C 741.952,498.456 742.452,496.456 743.5,494.5C 741.972,493.139 740.305,491.972 738.5,491C 743.333,491.357 746,489.19 746.5,484.5 Z"/></g>
<g><path style="opacity:1" fill="#ecebf3" d="M 775.5,489.5 C 775.991,492.152 777.658,493.652 780.5,494C 778.647,495.731 777.981,497.564 778.5,499.5C 776.758,497.027 774.925,497.027 773,499.5C 774.26,496.845 773.426,495.012 770.5,494C 773.491,493.855 775.158,492.355 775.5,489.5 Z"/></g>
<g><path style="opacity:1" fill="#eeedf4" d="M 754.5,504.5 C 755.931,505.78 756.598,507.447 756.5,509.5C 758.199,509.34 759.866,509.506 761.5,510C 760.01,510.745 759.01,511.912 758.5,513.5C 759.043,514.864 759.21,516.197 759,517.5C 758.196,516.196 757.029,515.529 755.5,515.5C 750.543,518.701 749.543,517.868 752.5,513C 751.449,511.615 750.116,510.615 748.5,510C 752.466,510.143 754.466,508.309 754.5,504.5 Z"/></g>
<g><path style="opacity:1" fill="#e2e0ed" d="M 483.5,506.5 C 484.69,508.826 486.69,509.993 489.5,510C 486.763,511.612 485.93,513.778 487,516.5C 485,513.833 483,513.833 481,516.5C 480.647,515.328 480.813,514.162 481.5,513C 480.728,511.779 479.728,510.779 478.5,510C 479.833,509.667 481.167,509.333 482.5,509C 483.252,508.329 483.586,507.496 483.5,506.5 Z"/></g>
<g><path style="opacity:1" fill="#e2e0ed" d="M 598.5,505.5 C 600.185,506.184 601.185,507.517 601.5,509.5C 603.5,510.167 605.5,510.833 607.5,511.5C 603.741,513.56 602.574,516.56 604,520.5C 602.414,519.624 600.914,518.624 599.5,517.5C 598.086,518.624 596.586,519.624 595,520.5C 594.883,519.05 595.05,517.55 595.5,516C 594.915,513.866 593.582,512.366 591.5,511.5C 593.5,510.833 595.5,510.167 597.5,509.5C 598.246,508.264 598.579,506.93 598.5,505.5 Z"/></g>
<g><path style="opacity:1" fill="#ecebf3" d="M 741.5,521.5 C 743.213,522.635 743.88,524.302 743.5,526.5C 748.992,525.822 749.659,526.989 745.5,530C 746.33,531.465 746.496,532.965 746,534.5C 744.981,533.313 743.814,532.313 742.5,531.5C 737.85,535.848 736.85,535.348 739.5,530C 738.5,529 737.5,528 736.5,527C 740.095,526.878 741.761,525.044 741.5,521.5 Z"/></g>
<g><path style="opacity:1" fill="#f1f0f6" d="M 514.5,522.5 C 516.011,523.958 517.011,525.791 517.5,528C 519.167,528.333 520.833,528.667 522.5,529C 520.939,529.941 519.605,531.108 518.5,532.5C 521.638,539.563 520.638,540.23 515.5,534.5C 514.086,535.624 512.586,536.624 511,537.5C 512.575,533.563 511.409,530.729 507.5,529C 509.473,528.505 511.473,528.338 513.5,528.5C 513.833,526.5 514.167,524.5 514.5,522.5 Z"/></g>
<g><path style="opacity:1" fill="#ecebf3" d="M 703.5,529.5 C 703.991,532.152 705.658,533.652 708.5,534C 706.647,535.731 705.981,537.564 706.5,539.5C 704.758,537.027 702.925,537.027 701,539.5C 702.26,536.845 701.426,535.012 698.5,534C 701.491,533.855 703.158,532.355 703.5,529.5 Z"/></g>
<g><path style="opacity:1" fill="#ecebf3" d="M 645.5,531.5 C 645.991,534.152 647.658,535.652 650.5,536C 648.647,537.731 647.981,539.564 648.5,541.5C 646.758,539.027 644.925,539.027 643,541.5C 644.26,538.845 643.426,537.012 640.5,536C 643.491,535.855 645.158,534.355 645.5,531.5 Z"/></g>
<g><path style="opacity:1" fill="#e4e2ef" d="M 724.5,533.5 C 726.176,534.183 726.843,535.517 726.5,537.5C 727.873,537.343 729.207,537.51 730.5,538C 728.996,539.491 728.163,541.324 728,543.5C 726.333,540.833 724.667,540.833 723,543.5C 722.837,541.324 722.004,539.491 720.5,538C 721.793,537.51 723.127,537.343 724.5,537.5C 724.5,536.167 724.5,534.833 724.5,533.5 Z"/></g>
<g><path style="opacity:1" fill="#eae8f2" d="M 679.5,536.5 C 681.104,537.287 681.771,538.62 681.5,540.5C 686.421,540.135 686.755,541.135 682.5,543.5C 683.326,544.451 683.492,545.451 683,546.5C 681.333,545.167 679.667,545.167 678,546.5C 677.837,544.324 677.004,542.491 675.5,541C 676.793,540.51 678.127,540.343 679.5,540.5C 679.5,539.167 679.5,537.833 679.5,536.5 Z"/></g>
<g><path style="opacity:1" fill="#ebeaf3" d="M 704.5,548.5 C 705.339,549.641 706.006,550.974 706.5,552.5C 708.078,553.298 709.744,553.798 711.5,554C 707.718,555.393 706.551,557.893 708,561.5C 705.667,558.833 703.333,558.833 701,561.5C 702.201,558.435 701.368,555.935 698.5,554C 700.134,553.506 701.801,553.34 703.5,553.5C 703.366,551.708 703.699,550.042 704.5,548.5 Z"/></g>
<g><path style="opacity:1" fill="#eae9f2" d="M 661.5,553.5 C 663.213,554.635 663.88,556.302 663.5,558.5C 665.527,558.338 667.527,558.505 669.5,559C 665.808,560.431 664.642,562.931 666,566.5C 663.667,563.833 661.333,563.833 659,566.5C 658.405,565.101 658.572,563.768 659.5,562.5C 658.395,561.108 657.061,559.941 655.5,559C 659.466,559.143 661.466,557.309 661.5,553.5 Z"/></g>
<g><path style="opacity:1" fill="#dbd9e9" d="M 703.5,571.5 C 705.089,573.306 707.089,574.639 709.5,575.5C 708.5,576.333 707.5,577.167 706.5,578C 707.982,581.757 707.316,582.257 704.5,579.5C 701.462,582.475 700.462,582.142 701.5,578.5C 700.99,576.912 699.99,575.745 698.5,575C 700.134,574.506 701.801,574.34 703.5,574.5C 703.5,573.5 703.5,572.5 703.5,571.5 Z"/></g>
<g><path style="opacity:1" fill="#bebad7" d="M 598.5,581.5 C 601.244,582.072 602.077,583.738 601,586.5C 600,585.167 599,585.167 598,586.5C 597.691,585.234 597.191,584.067 596.5,583C 597.416,582.722 598.082,582.222 598.5,581.5 Z"/></g>
</svg>
